<svg width="99" height="100" viewBox="0 0 99 100" fill="none" xmlns="http://www.w3.org/2000/svg">
<g clip-path="url(#clip0_1312_4114)">
<path d="M21.8693 90.6741L16.1553 80.8334L26.1909 63.4513L21.1754 54.7352L36.7436 27.5305H48.3937L58.2706 44.9308H68.3199L84.0287 72.1446L78.3329 81.9717H58.2706L53.2551 90.6695H21.8647L21.8693 90.6741ZM23.1163 88.4248H50.6521L46.9289 81.9717H19.3886L23.1118 88.4248H23.1163ZM48.8744 80.8516L52.5975 87.3047L61.3453 72.1537L57.6222 65.7005L48.8744 80.8516ZM59.5676 79.7269H75.7617L61.9938 55.878H44.4982L48.2214 62.3311H58.2797L63.9347 72.1491L59.5676 79.7269ZM19.3886 79.7269H46.9289L55.6767 64.5759H48.2304L43.2013 73.2783H31.8641L27.4925 65.7005L19.3932 79.7269H19.3886ZM63.9392 54.7534L77.7071 78.6022L81.4303 72.1537L67.6624 48.3048L63.9392 54.7534ZM33.1565 71.029H40.6073L31.8595 55.878H24.4133L33.1565 71.029ZM33.805 54.7534L42.5528 69.9044L46.2759 63.4513L41.2513 54.7534L46.9652 44.9263H55.6722L47.5774 30.8999L33.8096 54.7488L33.805 54.7534ZM44.4982 53.6287H61.9938L65.7169 47.1801H48.2259L44.5028 53.6287H44.4982ZM24.4088 53.6287H31.855L45.6229 29.7798H38.1721L24.4042 53.6287H24.4088Z" fill="white"/>
<path d="M90.0321 84.901L85.3204 76.7337L86.1684 75.278L86.2228 75.1782L87.9823 72.1489L97.9998 89.4948H57.8662L60.5373 84.901H90.0321Z" fill="white" fill-opacity="0.33"/>
<path d="M44.0587 24.1111L49.5006 14.6922L65.0325 41.5976L70.3428 41.593L49.5006 5.5L38.7529 24.1156L44.0587 24.1111Z" fill="white" fill-opacity="0.33"/>
<path d="M14.5093 84.9012H8.96321L21.7742 62.7121L19.1259 58.1001L1 89.495H17.1986L14.5093 84.9012Z" fill="white" fill-opacity="0.33"/>
</g>
<defs>
<clipPath id="clip0_1312_4114">
<rect width="97" height="85.174" fill="white" transform="translate(1 5.5)"/>
</clipPath>
</defs>
</svg>
