<svg width="160" height="160" viewBox="0 0 160 160" fill="none" xmlns="http://www.w3.org/2000/svg">
<rect width="160" height="160" rx="24" fill="url(#paint0_radial_1311_4107)"/>
<g clip-path="url(#clip0_1311_4107)">
<path d="M43.5391 127.395L35.999 114.409L49.242 91.4716L42.6235 79.97L63.1671 44.071H78.5405L91.5739 67.0323H104.835L125.564 102.943L118.048 115.911H91.5739L84.9555 127.389H43.5331L43.5391 127.395ZM45.1848 124.426H81.5206L76.6075 115.911H40.2657L45.1788 124.426H45.1848ZM79.1748 114.433L84.0877 122.948L95.6312 102.955L90.7182 94.4397L79.1748 114.433ZM93.2854 112.949H114.655L96.487 81.478H73.4L78.3131 89.9935H91.5859L99.0481 102.949L93.2854 112.949ZM40.2657 112.949H76.6075L88.151 92.9557H78.325L71.6886 104.439H56.7282L50.9594 94.4397L40.2717 112.949H40.2657ZM99.0541 79.994L117.222 111.465L122.135 102.955L103.967 71.4845L99.0541 79.994ZM58.4336 101.471H68.2656L56.7222 81.478H46.8962L58.4336 101.471ZM59.2894 79.994L70.8329 99.9871L75.7459 91.4716L69.1154 79.994L76.6555 67.0263H88.145L77.4633 48.5173L59.2954 79.988L59.2894 79.994ZM73.4 78.5099H96.487L101.4 70.0004H78.3191L73.406 78.5099H73.4ZM46.8902 78.5099H56.7162L74.8841 47.0392H65.0522L46.8843 78.5099H46.8902Z" fill="white"/>
<path d="M133.486 119.777L127.268 108.999L128.387 107.078L128.459 106.947L130.781 102.949L144 125.839H91.04L94.5647 119.777H133.486Z" fill="white" fill-opacity="0.33"/>
<path d="M72.8198 39.559L80.0008 27.1299L100.497 62.6339L107.504 62.6279L80.0008 15L65.8184 39.565L72.8198 39.559Z" fill="white" fill-opacity="0.33"/>
<path d="M33.8268 119.777H26.5081L43.4134 90.4963L39.9187 84.4104L16 125.839H37.3754L33.8268 119.777Z" fill="white" fill-opacity="0.33"/>
</g>
<defs>
<radialGradient id="paint0_radial_1311_4107" cx="0" cy="0" r="1" gradientUnits="userSpaceOnUse" gradientTransform="translate(5.54182 156.645) scale(190.958)">
<stop offset="0.11" stop-color="#14584B"/>
<stop offset="1" stop-color="#74E0CB"/>
</radialGradient>
<clipPath id="clip0_1311_4107">
<rect width="128" height="112.395" fill="white" transform="translate(16 15)"/>
</clipPath>
</defs>
</svg>
